<svg width="24" height="24" viewBox="0 0 24 24" fill="none" xmlns="http://www.w3.org/2000/svg">
<path d="M12.248 21.9951C17.768 21.9951 22.248 17.5141 22.248 11.9951C22.248 6.47412 17.768 1.99512 12.248 1.99512C6.71805 1.99512 2.24805 6.47412 2.24805 11.9951C2.24805 17.5141 6.71805 21.9951 12.248 21.9951Z" fill="#5BD11F"/>
<path d="M15.4918 8.78486C15.8935 8.40505 16.5449 8.40505 16.9467 8.78486C17.312 9.13015 17.3452 9.67047 17.0463 10.0512L16.9467 10.1603L11.5997 15.2151C11.2343 15.5605 10.6627 15.5918 10.2599 15.3092L10.1445 15.215L7.54919 12.7602C7.14752 12.3802 7.14769 11.7644 7.54957 11.3847C7.91492 11.0395 8.48648 11.0083 8.88916 11.2909L9.00452 11.3851L10.8715 13.1519L15.4918 8.78486Z" fill="#1C1C1E"/>
</svg>
